<?xml version="1.0" standalone="no"?><!DOCTYPE svg PUBLIC "-//W3C//DTD SVG 1.1//EN" "http://www.w3.org/Graphics/SVG/1.1/DTD/svg11.dtd"><svg t="1489803981265" class="icon" style="" viewBox="0 0 1024 1024" version="1.1" xmlns="http://www.w3.org/2000/svg" p-id="2040" xmlns:xlink="http://www.w3.org/1999/xlink" width="200" height="200"><defs><style type="text/css"></style></defs><path d="M65.327868 653.151787 65.327868 369.9344l55.639205 0 115.913986 189.133591L236.881059 369.9344l53.126988 0 0 283.217387-57.377802 0L118.455879 468.461391l0 184.690396L65.327868 653.151787z" p-id="2041" fill="#d81e06"></path><path d="M350.477256 653.151787 350.477256 369.9344l209.997782 0 0 47.911196L407.661653 417.845597l0 62.786998 142.188396 0 0 47.717791-142.188396 0 0 77.083609 158.222581 0 0 47.717791L350.477256 653.151787z" p-id="2042" fill="#d81e06"></path><path d="M654.558833 653.151787 586.941829 369.9344l58.537208 0 42.695405 194.542788 51.7752-194.542788 68.00279 0 49.650817 197.827601 43.468001-197.827601 57.571207 0-68.77641 283.217387-60.661591 0-56.410777-211.737402-56.218396 211.737402L654.558833 653.151787z" p-id="2043" fill="#d81e06"></path></svg>